<svg width="13" height="13" viewBox="0 0 13 13" fill="none" xmlns="http://www.w3.org/2000/svg">
<g clip-path="url(#clip0_3_125)">
<path opacity="0.5" d="M8.87246 1.57621C8.4325 1.57641 7.99722 1.66661 7.59341 1.84127C7.1896 2.01593 6.82579 2.27135 6.52435 2.59183L6.49997 2.6162L6.4756 2.59183C6.17398 2.27099 5.80986 2.01531 5.40568 1.84054C5.00149 1.66576 4.5658 1.5756 4.12545 1.5756C3.6851 1.5756 3.24941 1.66576 2.84523 1.84054C2.44104 2.01531 2.07692 2.27099 1.7753 2.59183C1.15669 3.25271 0.812506 4.12408 0.812506 5.02932C0.812506 5.93455 1.15669 6.80592 1.7753 7.46681L2.09218 7.79993L2.12062 7.82837L6.23591 11.3302C6.3095 11.3932 6.40314 11.4278 6.49997 11.4278C6.5968 11.4278 6.69045 11.3932 6.76403 11.3302L10.8753 7.82837L10.9078 7.79993L11.2246 7.46681C11.8433 6.80592 12.1874 5.93455 12.1874 5.02932C12.1874 4.12408 11.8433 3.25271 11.2246 2.59183C10.9218 2.27199 10.5572 2.01704 10.1529 1.84245C9.74851 1.66786 9.31289 1.57728 8.87246 1.57621ZM10.6356 6.90618L10.335 7.22306L6.49997 10.473L2.66499 7.22306L2.3603 6.90618C1.88659 6.39598 1.62333 5.72552 1.62333 5.02932C1.62333 4.33311 1.88659 3.66265 2.3603 3.15245C2.58637 2.9114 2.85947 2.71926 3.16273 2.58792C3.46598 2.45657 3.79294 2.3888 4.12342 2.3888C4.4539 2.3888 4.78086 2.45657 5.08412 2.58792C5.38737 2.71926 5.66047 2.9114 5.88654 3.15245L6.20747 3.48557C6.24537 3.52489 6.2908 3.55616 6.34106 3.57753C6.39132 3.59889 6.44536 3.6099 6.49997 3.6099C6.55458 3.6099 6.60863 3.59889 6.65888 3.57753C6.70914 3.55616 6.75457 3.52489 6.79247 3.48557L7.10935 3.15245C7.33542 2.9114 7.60851 2.71926 7.91177 2.58792C8.21502 2.45657 8.54199 2.3888 8.87246 2.3888C9.20294 2.3888 9.52991 2.45657 9.83316 2.58792C10.1364 2.71926 10.4095 2.9114 10.6356 3.15245C11.1111 3.66176 11.3755 4.33255 11.3755 5.02932C11.3755 5.72608 11.1111 6.39688 10.6356 6.90618Z" fill="#FF5500"/>
</g>
<defs>
<clipPath id="clip0_3_125">
<rect width="12.2553" height="12.2553" fill="white" transform="scale(1.06076)"/>
</clipPath>
</defs>
</svg>
