<svg width="27" height="27" viewBox="0 0 27 27" fill="none" xmlns="http://www.w3.org/2000/svg">
<path d="M23.2031 8.85938H19.4062V6.37031C19.4062 4.93594 18.2672 3.79688 16.8328 3.79688H10.1672C8.73281 3.79688 7.59375 4.93594 7.59375 6.37031V8.85938H3.79688C3.33281 8.85938 2.95312 9.23906 2.95312 9.70312V19.3641C2.95312 21.7266 4.85156 23.625 7.21406 23.625H19.7859C22.1484 23.625 24.0469 21.7266 24.0469 19.3641V9.70312C24.0469 9.23906 23.6672 8.85938 23.2031 8.85938ZM9.28125 6.37031C9.28125 5.86406 9.66094 5.48438 10.1672 5.48438H16.8328C17.3391 5.48438 17.7188 5.86406 17.7188 6.37031V8.85938H9.28125V6.37031ZM22.3594 19.3641C22.3594 20.7984 21.2203 21.9375 19.7859 21.9375H7.21406C5.77969 21.9375 4.64062 20.7984 4.64062 19.3641V10.5469H7.59375V12.2344C7.59375 12.6984 7.97344 13.0781 8.4375 13.0781C8.90156 13.0781 9.28125 12.6984 9.28125 12.2344V10.5469H17.7188V12.2344C17.7188 12.6984 18.0984 13.0781 18.5625 13.0781C19.0266 13.0781 19.4062 12.6984 19.4062 12.2344V10.5469H22.3594V19.3641Z" fill="#CFCFCF"/>
</svg>
