<svg width="21" height="18" viewBox="0 0 21 18" fill="none" xmlns="http://www.w3.org/2000/svg">
<path d="M14.7257 0.00110706C13.9219 0.00147134 13.1266 0.166274 12.3888 0.48538C11.6511 0.804485 10.9864 1.27115 10.4356 1.85666L10.3911 1.9012L10.3466 1.85666C9.7955 1.27049 9.13025 0.803358 8.3918 0.484045C7.65335 0.164731 6.85734 0 6.05281 0C5.24828 0 4.45227 0.164731 3.71382 0.484045C2.97536 0.803358 2.31011 1.27049 1.75905 1.85666C0.628837 3.06411 0 4.65612 0 6.31C0 7.96388 0.628837 9.55589 1.75905 10.7633L2.33798 11.372L2.38994 11.4239L9.90866 17.8219C10.0431 17.9369 10.2142 18.0001 10.3911 18.0001C10.568 18.0001 10.7391 17.9369 10.8735 17.8219L18.3848 11.4239L18.4442 11.372L19.0231 10.7633C20.1534 9.55589 20.7822 7.96388 20.7822 6.31C20.7822 4.65612 20.1534 3.06411 19.0231 1.85666C18.4699 1.27232 17.8037 0.806516 17.065 0.487539C16.3262 0.168562 15.5304 0.0030682 14.7257 0.00110706ZM17.9469 9.73907L17.3977 10.318L10.3911 16.2558L3.38452 10.318L2.82785 9.73907C1.96238 8.80692 1.48139 7.58198 1.48139 6.31C1.48139 5.03802 1.96238 3.81308 2.82785 2.88093C3.24089 2.44052 3.73984 2.08949 4.29389 1.84952C4.84794 1.60955 5.44531 1.48573 6.0491 1.48573C6.65288 1.48573 7.25026 1.60955 7.8043 1.84952C8.35835 2.08949 8.85731 2.44052 9.27034 2.88093L9.8567 3.48955C9.92594 3.56139 10.0089 3.61853 10.1008 3.65755C10.1926 3.69658 10.2913 3.71669 10.3911 3.71669C10.4909 3.71669 10.5896 3.69658 10.6814 3.65755C10.7733 3.61853 10.8563 3.56139 10.9255 3.48955L11.5044 2.88093C11.9175 2.44052 12.4164 2.08949 12.9705 1.84952C13.5245 1.60955 14.1219 1.48573 14.7257 1.48573C15.3295 1.48573 15.9268 1.60955 16.4809 1.84952C17.0349 2.08949 17.5339 2.44052 17.9469 2.88093C18.8157 3.81144 19.2988 5.037 19.2988 6.31C19.2988 7.583 18.8157 8.80856 17.9469 9.73907Z" fill="white"/>
</svg>
