<svg width="161" height="234" viewBox="0 0 161 234" fill="none" xmlns="http://www.w3.org/2000/svg">
<path fill-rule="evenodd" clip-rule="evenodd" d="M0 19.2163C0 12.49 0 9.12679 1.30903 6.55767C2.46049 4.29781 4.29781 2.46049 6.55767 1.30903C9.12679 0 12.49 0 19.2163 0H141.784C148.51 0 151.873 0 154.442 1.30903C156.702 2.46049 158.539 4.29781 159.691 6.55767C161 9.12679 161 12.49 161 19.2163V214.089C161 220.815 161 224.179 159.691 226.748C158.539 229.008 156.702 230.845 154.442 231.996C151.873 233.305 148.51 233.305 141.784 233.305H19.2163C12.49 233.305 9.12679 233.305 6.55767 231.996C4.29781 230.845 2.46049 229.008 1.30903 226.748C0 224.179 0 220.815 0 214.089V19.2163Z" fill="#F9F8F6"/>
</svg>
