<svg width="24" height="24" viewBox="0 0 24 24" fill="none" xmlns="http://www.w3.org/2000/svg">
<path fill-rule="evenodd" clip-rule="evenodd" d="M9.2235 3.77601C9.55894 2.64942 10.5428 1.5 12 1.5C13.4576 1.5 14.4405 2.64947 14.7784 3.77394C14.7801 3.77603 14.7824 3.77868 14.7853 3.78172C14.7922 3.78895 14.8001 3.79559 14.8075 3.80075C14.8132 3.80467 14.8166 3.80636 14.817 3.80656C15.6653 4.15582 16.6637 4.71371 17.4446 5.73514C18.2318 6.76478 18.7439 8.19413 18.7439 10.1883C18.7439 12.1765 18.9537 13.2668 19.2626 14.0153C19.5334 14.6716 19.8896 15.103 20.3964 15.7168C20.4704 15.8065 20.5476 15.9 20.6283 15.9987L20.6285 15.999C21.5625 17.1431 20.6805 18.75 19.2417 18.75H15.75C15.75 19.7446 15.3549 20.6984 14.6516 21.4016C13.9484 22.1049 12.9946 22.5 12 22.5C11.0054 22.5 10.0516 22.1049 9.34834 21.4016C8.64508 20.6984 8.24999 19.7446 8.24999 18.75H4.76296C3.3268 18.75 2.42992 17.1513 3.3717 15.9987C3.45241 15.9 3.5297 15.8063 3.60378 15.7166C4.1105 15.1029 4.46671 14.6714 4.73779 14.0151C5.04698 13.2666 5.25725 12.1763 5.25843 10.1883M9.74999 18.75C9.74999 19.3467 9.98705 19.919 10.409 20.341C10.831 20.7629 11.4033 21 12 21C12.5967 21 13.169 20.7629 13.591 20.341C14.0129 19.919 14.25 19.3467 14.25 18.75H9.74999ZM4.76296 17.25C4.60881 17.25 4.53942 17.1791 4.51155 17.1245C4.49549 17.093 4.49068 17.0625 4.49299 17.0369C4.49504 17.0144 4.50339 16.9844 4.53324 16.9479L4.53328 16.9478C4.60572 16.8592 4.6787 16.7712 4.75176 16.6832C5.2545 16.0772 5.7612 15.4666 6.12419 14.5878C6.54142 13.5776 6.75723 12.2622 6.75843 10.1887V10.1883C6.75843 8.46069 7.19574 7.36809 7.74857 6.64523C8.30759 5.91428 9.04004 5.48863 9.7565 5.19357C9.75656 5.19355 9.75661 5.19352 9.75667 5.1935C10.1385 5.03643 10.5195 4.68648 10.6571 4.21761L10.6577 4.21574C10.8711 3.48152 11.4226 3 12 3C12.5774 3 13.1291 3.48116 13.3453 4.2169L13.3458 4.2188C13.4826 4.67986 13.8596 5.03471 14.2457 5.19353C14.9607 5.48786 15.6935 5.91434 16.253 6.64619C16.8063 7.3699 17.2439 8.4629 17.2439 10.1883C17.2439 12.2617 17.4591 13.5773 17.876 14.5876C18.2388 15.4665 18.7456 16.0773 19.2483 16.6833C19.3214 16.7713 19.3943 16.8592 19.4667 16.9478C19.5137 17.0055 19.5175 17.0652 19.487 17.1254C19.4586 17.1814 19.3903 17.25 19.2417 17.25H4.76296ZM9.2235 3.77601C9.2222 3.77755 9.22058 3.77936 9.2186 3.78141C9.21222 3.78803 9.20467 3.79442 9.19714 3.79961C9.19015 3.80443 9.18595 3.8063 9.18596 3.80631L9.1855 3.8065C8.33686 4.15597 7.33806 4.71281 6.55708 5.73399C5.76993 6.76324 5.2585 8.19238 5.25843 10.1878" fill="#CFCFCF"/>
</svg>
