<svg width="15" height="18" viewBox="0 0 15 18" fill="none" xmlns="http://www.w3.org/2000/svg">
<path fill-rule="evenodd" clip-rule="evenodd" d="M10.5627 2.27445L12.2385 3.49051C12.7026 3.82726 12.8058 4.47643 12.469 4.94048L6.25625 13.5021L2.89995 11.0665L9.11274 2.50496C9.44948 2.04091 10.0987 1.9377 10.5627 2.27445ZM7.43226 1.2855C8.44249 -0.106653 10.39 -0.416268 11.7822 0.593963L13.458 1.81003C14.8501 2.82026 15.1597 4.76778 14.1495 6.15994L7.93673 14.7215L6.71728 16.402L6.72189 16.4054L5.41239 16.7378L1.46376 17.7402L0.440639 18L0.370285 16.9467L0.0987559 12.8819L0.0087075 11.5339L1.43418e-05 11.5276L1.21947 9.84709L7.43226 1.2855ZM1.19223 13.6754L1.39341 16.687L4.31891 15.9443L1.19223 13.6754Z" fill="black"/>
</svg>
