<svg width="20" height="20" viewBox="0 0 20 20" fill="none" xmlns="http://www.w3.org/2000/svg">
<path d="M18.2892 7.64918C18.2368 7.4949 18.1404 7.35934 18.0118 7.25923C17.8833 7.15912 17.7283 7.09884 17.5658 7.08584L12.815 6.70834L10.7592 2.15751C10.6937 2.01094 10.5872 1.88645 10.4525 1.79906C10.3179 1.71167 10.1608 1.66513 10.0003 1.66504C9.83975 1.66495 9.68262 1.71132 9.54787 1.79856C9.41311 1.8858 9.30648 2.01018 9.24085 2.15668L7.18501 6.70834L2.43418 7.08584C2.27456 7.09849 2.12196 7.15685 1.99464 7.25395C1.86732 7.35105 1.77067 7.48278 1.71626 7.63337C1.66184 7.78396 1.65196 7.94704 1.6878 8.1031C1.72364 8.25916 1.80368 8.40158 1.91835 8.51334L5.42918 11.9358L4.18751 17.3125C4.14981 17.4753 4.16189 17.6456 4.22219 17.8014C4.2825 17.9572 4.38823 18.0913 4.52568 18.1862C4.66313 18.2812 4.82594 18.3326 4.993 18.3339C5.16005 18.3352 5.32363 18.2862 5.46251 18.1933L10 15.1683L14.5375 18.1933C14.6795 18.2876 14.8469 18.3361 15.0172 18.3324C15.1875 18.3286 15.3527 18.2728 15.4903 18.1724C15.628 18.0721 15.7317 17.9319 15.7873 17.7709C15.843 17.6099 15.848 17.4356 15.8017 17.2717L14.2775 11.9383L18.0575 8.53668C18.305 8.31334 18.3958 7.96501 18.2892 7.64918Z" fill="#E6BB66"/>
</svg>
