<svg width="14" height="14" viewBox="0 0 14 14" fill="none" xmlns="http://www.w3.org/2000/svg">
<path fill-rule="evenodd" clip-rule="evenodd" d="M3.75612 0.5C3.75612 0.223858 3.97998 0 4.25612 0C4.53226 0 4.75612 0.223858 4.75612 0.5V0.952867C4.75612 1.22901 4.53226 1.45287 4.25612 1.45287C3.97998 1.45287 3.75612 1.22901 3.75612 0.952867V0.5ZM10.2439 0.5C10.2439 0.223858 10.4678 0 10.7439 0C11.02 0 11.2439 0.223858 11.2439 0.5V0.952867C11.2439 1.22901 11.02 1.45287 10.7439 1.45287C10.4678 1.45287 10.2439 1.22901 10.2439 0.952867V0.5ZM12 3.45292H2V4.76679H12V3.45292ZM2 11.4391L2 5.76679H12V11.4391H2ZM2 1.45292C0.895431 1.45292 0 2.34835 0 3.45292V11.4391C0 12.5436 0.89543 13.4391 2 13.4391H12C13.1046 13.4391 14 12.5436 14 11.4391V3.45292C14 2.34835 13.1046 1.45292 12 1.45292H2Z" fill="black"/>
</svg>
