<svg width="24" height="24" viewBox="0 0 24 24" fill="none" xmlns="http://www.w3.org/2000/svg">
<path d="M17.25 15C16.6886 15.0028 16.135 15.1316 15.6301 15.377C15.1251 15.6223 14.6817 15.9779 14.3325 16.4175L8.85002 12.99C9.04983 12.3451 9.04983 11.6548 8.85002 11.01L14.3325 7.58247C14.889 8.27151 15.6714 8.74135 16.5411 8.90878C17.4108 9.0762 18.3117 8.93039 19.0842 8.49719C19.8567 8.06398 20.4509 7.37134 20.7616 6.54196C21.0723 5.71257 21.0794 4.79998 20.7817 3.96584C20.484 3.13171 19.9007 2.42986 19.135 1.98464C18.3694 1.53942 17.4709 1.37956 16.5987 1.53337C15.7265 1.68719 14.9368 2.14475 14.3697 2.82501C13.8025 3.50527 13.4944 4.36431 13.5 5.24997C13.5036 5.58535 13.554 5.91859 13.65 6.23997L8.16752 9.66747C7.6835 9.05816 7.02192 8.61451 6.27448 8.39802C5.52704 8.18153 4.73076 8.20292 3.99603 8.45923C3.26129 8.71554 2.62448 9.19407 2.17388 9.8285C1.72328 10.4629 1.4812 11.2218 1.4812 12C1.4812 12.7781 1.72328 13.537 2.17388 14.1714C2.62448 14.8059 3.26129 15.2844 3.99603 15.5407C4.73076 15.797 5.52704 15.8184 6.27448 15.6019C7.02192 15.3854 7.6835 14.9418 8.16752 14.3325L13.65 17.76C13.554 18.0814 13.5036 18.4146 13.5 18.75C13.5 19.4916 13.7199 20.2167 14.132 20.8334C14.5441 21.45 15.1297 21.9307 15.815 22.2145C16.5002 22.4983 17.2542 22.5726 17.9816 22.4279C18.709 22.2832 19.3772 21.9261 19.9017 21.4016C20.4261 20.8772 20.7833 20.209 20.928 19.4816C21.0727 18.7541 20.9984 18.0001 20.7146 17.3149C20.4307 16.6297 19.9501 16.044 19.3334 15.632C18.7167 15.2199 17.9917 15 17.25 15ZM17.25 2.99997C17.695 2.99997 18.13 3.13193 18.5 3.37916C18.8701 3.6264 19.1584 3.9778 19.3287 4.38893C19.499 4.80007 19.5436 5.25247 19.4568 5.68892C19.37 6.12538 19.1557 6.52629 18.841 6.84096C18.5263 7.15563 18.1254 7.36992 17.689 7.45674C17.2525 7.54355 16.8001 7.499 16.389 7.3287C15.9778 7.1584 15.6264 6.87001 15.3792 6.5C15.132 6.12999 15 5.69498 15 5.24997C15 4.65323 15.2371 4.08094 15.659 3.65898C16.081 3.23702 16.6533 2.99997 17.25 2.99997ZM5.25002 14.25C4.80501 14.25 4.36999 14.118 3.99998 13.8708C3.62997 13.6235 3.34158 13.2721 3.17129 12.861C3.00099 12.4499 2.95643 11.9975 3.04325 11.561C3.13007 11.1246 3.34436 10.7236 3.65903 10.409C3.97369 10.0943 4.37461 9.88002 4.81106 9.7932C5.24752 9.70639 5.69992 9.75094 6.11105 9.92124C6.52219 10.0915 6.87359 10.3799 7.12082 10.7499C7.36806 11.1199 7.50002 11.555 7.50002 12C7.50002 12.5967 7.26296 13.169 6.84101 13.591C6.41905 14.0129 5.84675 14.25 5.25002 14.25ZM17.25 21C16.805 21 16.37 20.868 16 20.6208C15.63 20.3735 15.3416 20.0221 15.1713 19.611C15.001 19.1999 14.9564 18.7475 15.0432 18.311C15.1301 17.8746 15.3444 17.4736 15.659 17.159C15.9737 16.8443 16.3746 16.63 16.8111 16.5432C17.2475 16.4564 17.6999 16.5009 18.1111 16.6712C18.5222 16.8415 18.8736 17.1299 19.1208 17.4999C19.3681 17.8699 19.5 18.305 19.5 18.75C19.5 19.3467 19.263 19.919 18.841 20.341C18.4191 20.7629 17.8468 21 17.25 21Z" fill="white"/>
</svg>
