<svg width="61" height="21" viewBox="0 0 61 21" fill="none" xmlns="http://www.w3.org/2000/svg">
<path d="M27.3895 12.7102H32.2916C32.9653 12.7102 33.5116 12.1849 33.5116 11.5371C33.5116 10.8893 32.9653 10.364 32.2916 10.364H27.3895C26.7158 10.364 26.1695 10.8893 26.1695 11.5371C26.1695 12.1849 26.7158 12.7102 27.3895 12.7102Z" fill="black"/>
<path d="M1.20273 12.1112L0.282968 13.1731C0.0137104 13.4842 -0.0702839 13.9063 0.0607709 14.2901C0.192422 14.6744 0.520058 14.9665 0.928711 15.0633L5.04108 16.0357C5.66627 18.8673 8.28245 20.9998 11.4107 20.9998C13.9588 20.9998 16.1471 19.5724 17.2176 17.5178H42.9581C44.0285 19.5724 46.2168 20.9998 48.7649 20.9998C51.3693 20.9998 53.605 19.5129 54.6472 17.3843L59.9427 16.7004C60.293 16.6551 60.6057 16.4655 60.7999 16.1814C60.9941 15.8973 61.0501 15.5456 60.9542 15.2186L60.2912 12.9623L60.9715 10.0004C61.0668 9.58345 60.9196 9.14984 60.5872 8.86746C54.9096 4.05142 42.1907 4.15109 39.7078 4.22039C33.1724 0.108321 24.3911 -1.02753 14.2778 0.938869C13.7186 1.04756 13.1737 1.16405 12.637 1.28412C12.6327 1.28526 12.6284 1.28591 12.624 1.28713C5.79472 2.81648 0.895128 5.14696 0.674346 5.25314C0.260927 5.4519 9.15259e-06 5.85801 9.15259e-06 6.30249V9.17161C9.15259e-06 9.33027 0.0333686 9.48779 0.098896 9.63385L1.20273 12.1112ZM11.4107 18.6536C9.16372 18.6536 7.33551 16.8957 7.33551 14.7346C7.33551 12.5734 9.16372 10.8155 11.4107 10.8155C13.6583 10.8155 15.4865 12.5734 15.4865 14.7346C15.4865 16.8957 13.6583 18.6536 11.4107 18.6536ZM48.7649 18.6536C46.5173 18.6536 44.6891 16.8957 44.6891 14.7346C44.6891 12.5734 46.5173 10.8155 48.7649 10.8155C51.0125 10.8155 52.8407 12.5734 52.8407 14.7346C52.8407 16.8957 51.0125 18.6536 48.7649 18.6536ZM35.2884 4.57173L21.5901 5.72684C19.138 5.93483 16.7618 4.9792 15.1785 3.18006C21.3803 2.02452 28.7888 1.75896 35.2884 4.57173ZM2.44001 7.04884C3.91497 6.40739 7.6828 4.88383 12.506 3.74419L13.14 4.50507C15.0481 6.79338 17.9092 8.10106 20.9253 8.10106C21.2166 8.10106 21.5097 8.08846 21.8034 8.06383L39.4313 6.57736C39.8379 6.56247 52.7152 6.0907 58.4266 10.2003L57.8422 12.7441C57.7988 12.9331 57.8047 13.1296 57.8595 13.3163L58.2235 14.5553L55.2593 14.9378C55.2617 14.8687 55.2807 14.8042 55.2807 14.7346C55.2807 11.2801 52.3576 8.46937 48.7649 8.46937C45.1722 8.46937 42.2491 11.2801 42.2491 14.7346C42.2491 14.8842 42.2843 15.0245 42.295 15.1716H17.8806C17.8914 15.0245 17.9265 14.8842 17.9265 14.7346C17.9265 11.2801 15.0034 8.46937 11.4107 8.46937C8.22348 8.46937 5.57498 10.6849 5.01524 13.5961L3.40684 13.2333L3.55576 13.0609C3.84945 12.7218 3.92093 12.2532 3.73984 11.8477L2.44001 8.93104V7.04884Z" fill="black"/>
</svg>
