<svg width="27" height="27" viewBox="0 0 27 27" fill="none" xmlns="http://www.w3.org/2000/svg">
<path d="M18.4275 3.27372C17.5137 3.27413 16.6097 3.46148 15.771 3.82423C14.9323 4.18699 14.1767 4.71749 13.5506 5.38309L13.5 5.43372L13.4494 5.38309C12.8229 4.71674 12.0667 4.18571 11.2272 3.82272C10.3878 3.45973 9.48287 3.27246 8.56828 3.27246C7.6537 3.27246 6.74881 3.45973 5.90934 3.82272C5.06988 4.18571 4.31363 4.71674 3.68719 5.38309C2.40238 6.75571 1.68752 8.56549 1.68752 10.4456C1.68752 12.3257 2.40238 14.1355 3.68719 15.5081L4.34532 16.2L4.40438 16.259L12.9516 23.5322C13.1044 23.6629 13.2989 23.7347 13.5 23.7347C13.7011 23.7347 13.8956 23.6629 14.0484 23.5322L22.5872 16.259L22.6547 16.2L23.3128 15.5081C24.5976 14.1355 25.3125 12.3257 25.3125 10.4456C25.3125 8.56549 24.5976 6.75571 23.3128 5.38309C22.6839 4.71882 21.9266 4.1893 21.0868 3.82669C20.247 3.46408 19.3422 3.27595 18.4275 3.27372ZM22.0894 14.3437L21.465 15.0018L13.5 21.7518L5.535 15.0018L4.90219 14.3437C3.91833 13.2841 3.37155 11.8916 3.37155 10.4456C3.37155 8.99962 3.91833 7.60712 4.90219 6.54747C5.37172 6.04682 5.93893 5.64777 6.56877 5.37497C7.1986 5.10217 7.87769 4.96143 8.56407 4.96143C9.25044 4.96143 9.92953 5.10217 10.5594 5.37497C11.1892 5.64777 11.7564 6.04682 12.2259 6.54747L12.8925 7.23934C12.9712 7.321 13.0656 7.38596 13.17 7.43032C13.2743 7.47469 13.3866 7.49755 13.5 7.49755C13.6134 7.49755 13.7257 7.47469 13.8301 7.43032C13.9344 7.38596 14.0288 7.321 14.1075 7.23934L14.7656 6.54747C15.2352 6.04682 15.8024 5.64777 16.4322 5.37497C17.062 5.10217 17.7411 4.96143 18.4275 4.96143C19.1139 4.96143 19.793 5.10217 20.4228 5.37497C21.0526 5.64777 21.6198 6.04682 22.0894 6.54747C23.0769 7.60526 23.6262 8.99846 23.6262 10.4456C23.6262 11.8927 23.0769 13.2859 22.0894 14.3437Z" fill="#CFCFCF"/>
</svg>
