<svg width="24" height="24" viewBox="0 0 24 24" fill="none" xmlns="http://www.w3.org/2000/svg">
<path d="M16.38 2.90999C15.5677 2.91036 14.7641 3.07689 14.0186 3.39934C13.2731 3.72179 12.6015 4.19334 12.045 4.78499L12 4.82999L11.955 4.78499C11.3981 4.19268 10.7259 3.72065 9.97973 3.39799C9.23355 3.07533 8.42919 2.90887 7.61623 2.90887C6.80327 2.90887 5.99892 3.07533 5.25273 3.39799C4.50654 3.72065 3.83432 4.19268 3.27748 4.78499C2.13543 6.00509 1.5 7.61378 1.5 9.28499C1.5 10.9562 2.13543 12.5649 3.27748 13.785L3.86248 14.4L3.91498 14.4525L11.5125 20.9175C11.6483 21.0337 11.8212 21.0975 12 21.0975C12.1787 21.0975 12.3516 21.0337 12.4875 20.9175L20.0775 14.4525L20.1375 14.4L20.7225 13.785C21.8645 12.5649 22.5 10.9562 22.5 9.28499C22.5 7.61378 21.8645 6.00509 20.7225 4.78499C20.1635 4.19453 19.4903 3.72384 18.7438 3.40152C17.9973 3.0792 17.1931 2.91197 16.38 2.90999ZM19.635 12.75L19.08 13.335L12 19.335L4.91998 13.335L4.35748 12.75C3.48294 11.8081 2.99692 10.5703 2.99692 9.28499C2.99692 7.99968 3.48294 6.76191 4.35748 5.81999C4.77484 5.37497 5.27903 5.02026 5.83888 4.77777C6.39874 4.53529 7.00237 4.41018 7.61248 4.41018C8.22259 4.41018 8.82623 4.53529 9.38608 4.77777C9.94594 5.02026 10.4501 5.37497 10.8675 5.81999L11.46 6.43499C11.5299 6.50758 11.6138 6.56532 11.7066 6.60475C11.7994 6.64419 11.8992 6.66451 12 6.66451C12.1008 6.66451 12.2006 6.64419 12.2934 6.60475C12.3861 6.56532 12.47 6.50758 12.54 6.43499L13.125 5.81999C13.5423 5.37497 14.0465 5.02026 14.6064 4.77777C15.1662 4.53529 15.7699 4.41018 16.38 4.41018C16.9901 4.41018 17.5937 4.53529 18.1536 4.77777C18.7134 5.02026 19.2176 5.37497 19.635 5.81999C20.5128 6.76026 21.001 7.99865 21.001 9.28499C21.001 10.5713 20.5128 11.8097 19.635 12.75Z" fill="white"/>
</svg>
