<svg width="14" height="19" viewBox="0 0 14 19" fill="none" xmlns="http://www.w3.org/2000/svg">
<path fill-rule="evenodd" clip-rule="evenodd" d="M10.9633 10.0489L10.2959 10.9146L7 15.01L3.70407 10.9146L3.0367 10.0489C2.38601 9.2048 2 8.15031 2 7C2 4.23858 4.23858 2 7 2C9.76142 2 12 4.23858 12 7C12 8.15031 11.614 9.2048 10.9633 10.0489ZM12.5473 11.3071L12.5657 11.2842L12.5772 11.27H12.5473L12.5587 11.2551L12.5772 11.2309C13.0238 10.643 13.3796 9.98241 13.6237 9.26995C13.8676 8.55812 14 7.79452 14 7C14 3.13401 10.866 0 7 0C3.13401 0 0 3.13401 0 7C0 7.79452 0.132368 8.55812 0.376255 9.26995C0.620356 9.98241 0.976171 10.643 1.4228 11.2309L1.44128 11.2551L1.45272 11.27H1.4228L1.43425 11.2842L1.45272 11.3071L3.03238 13.27L5.71638 16.605L7 18.2L8.28362 16.605L10.9676 13.27L12.5473 11.3071ZM7.66 7C7.66 7.36451 7.36451 7.66 7 7.66C6.63549 7.66 6.34 7.36451 6.34 7C6.34 6.63549 6.63549 6.34 7 6.34C7.36451 6.34 7.66 6.63549 7.66 7ZM9.66 7C9.66 8.46908 8.46908 9.66 7 9.66C5.53092 9.66 4.34 8.46908 4.34 7C4.34 5.53092 5.53092 4.34 7 4.34C8.46908 4.34 9.66 5.53092 9.66 7Z" fill="black"/>
</svg>
