<svg width="27" height="27" viewBox="0 0 27 27" fill="none" xmlns="http://www.w3.org/2000/svg">
<path d="M19.4062 13.5C20.8042 13.5 21.9375 14.6333 21.9375 16.0312V16.875C21.9375 20.2018 18.7996 23.625 13.5 23.625C8.20042 23.625 5.0625 20.2018 5.0625 16.875V16.0312C5.0625 14.6333 6.19578 13.5 7.59375 13.5H19.4062ZM19.4062 15.1875H7.59375C7.12776 15.1875 6.75 15.5653 6.75 16.0312V16.875C6.75 19.301 9.16676 21.9375 13.5 21.9375C17.8332 21.9375 20.25 19.301 20.25 16.875V16.0312C20.25 15.5653 19.8722 15.1875 19.4062 15.1875ZM13.5 2.53125C16.0629 2.53125 18.1406 4.60893 18.1406 7.17188C18.1406 9.73482 16.0629 11.8125 13.5 11.8125C10.9371 11.8125 8.85938 9.73482 8.85938 7.17188C8.85938 4.60893 10.9371 2.53125 13.5 2.53125ZM13.5 4.21875C11.869 4.21875 10.5469 5.54091 10.5469 7.17188C10.5469 8.80284 11.869 10.125 13.5 10.125C15.131 10.125 16.4531 8.80284 16.4531 7.17188C16.4531 5.54091 15.131 4.21875 13.5 4.21875Z" fill="#CFCFCF"/>
</svg>
